<mxfile host="app.diagrams.net" modified="2024-01-05T02:33:33.342Z" agent="Mozilla/5.0 (Windows NT 10.0; Win64; x64) AppleWebKit/537.36 (KHTML, like Gecko) Chrome/120.0.0.0 Safari/537.36" version="22.1.16" etag="sqGTsqs1GGcGCj2Aeo4j" type="github">
  <diagram name="Page-1" id="cNkAdRie-qidW0HF5eVi">
    <mxGraphModel>
      <root>
        <mxCell id="0" />
        <mxCell id="1" parent="0" />
      </root>
    </mxGraphModel>
  </diagram>
</mxfile>
